<?xml version="1.0" encoding="UTF-8" standalone="no"?>
<!-- Created with Inkscape (http://www.inkscape.org/) -->

<svg
   width="128mm"
   height="128mm"
   viewBox="0 0 128 128"
   version="1.1"
   id="svg1"
   sodipodi:docname="systray_arrow.svg"
   inkscape:version="1.3 (0e150ed6c4, 2023-07-21)"
   xmlns:inkscape="http://www.inkscape.org/namespaces/inkscape"
   xmlns:sodipodi="http://sodipodi.sourceforge.net/DTD/sodipodi-0.dtd"
   xmlns="http://www.w3.org/2000/svg"
   xmlns:svg="http://www.w3.org/2000/svg">
  <sodipodi:namedview
     id="namedview1"
     pagecolor="#505050"
     bordercolor="#ffffff"
     borderopacity="1"
     inkscape:showpageshadow="0"
     inkscape:pageopacity="0"
     inkscape:pagecheckerboard="1"
     inkscape:deskcolor="#d1d1d1"
     inkscape:document-units="mm"
     inkscape:zoom="1.0660308"
     inkscape:cx="339.57743"
     inkscape:cy="169.78871"
     inkscape:current-layer="layer1"
     showgrid="false" />
  <defs
     id="defs1" />
  <g
     inkscape:label="Layer 1"
     inkscape:groupmode="layer"
     id="layer1">
    <path
       id="rect5"
       style="fill:#f9f9f9;stroke-width:0.220762"
       d="m 63.99871,28.246762 -60.6598639,60.659346 10.8236289,10.82363 0.0021,-0.002 0.0026,0.003 17.359147,-17.35966 0.0052,0.005 0.0015,-0.002 0.0026,0.002 6.152596,-6.1526 0.0041,0.004 0.0016,-0.002 0.0026,0.003 17.359664,-17.359663 0.0047,0.0052 0.0021,-0.0015 0.0026,0.0026 8.94674,-8.94674 49.824348,49.824861 10.82363,-10.823629 -0.002,-0.002 0.003,-0.003 -17.35966,-17.35915 0.005,-0.0052 -0.002,-0.0015 0.002,-0.0026 -6.1526,-6.152596 0.004,-0.0041 -0.002,-0.0015 0.003,-0.0026 -17.359662,-17.359664 0.0052,-0.0047 -0.0016,-0.0021 0.0026,-0.0026 -19.673217,-19.672701 -0.01344,0.01344 z" />
  </g>
</svg>
